<svg width="20" height="18" viewBox="0 0 20 18" fill="none" xmlns="http://www.w3.org/2000/svg">
<path fill-rule="evenodd" clip-rule="evenodd" d="M18.45 0.75H1.94998C1.12155 0.75 0.449982 1.42157 0.449982 2.25V15.75C0.449982 16.5784 1.12155 17.25 1.94998 17.25H18.45C19.2784 17.25 19.95 16.5784 19.95 15.75V2.25C19.95 1.42157 19.2784 0.75 18.45 0.75ZM18.45 15.75H1.94998V2.25H18.45V15.75ZM14.7 5.25C14.7 7.73528 12.6853 9.75 10.2 9.75C7.7147 9.75 5.69998 7.73528 5.69998 5.25C5.69998 4.83579 6.03577 4.5 6.44998 4.5C6.86419 4.5 7.19998 4.83579 7.19998 5.25C7.19998 6.90685 8.54313 8.25 10.2 8.25C11.8568 8.25 13.2 6.90685 13.2 5.25C13.2 4.83579 13.5358 4.5 13.95 4.5C14.3642 4.5 14.7 4.83579 14.7 5.25Z" fill="#CE4B4B"/>
</svg>
