<svg width="20" height="20" viewBox="0 0 20 20" fill="none" xmlns="http://www.w3.org/2000/svg">
<path fill-rule="evenodd" clip-rule="evenodd" d="M19.3306 18.4694L14.6366 13.7762C17.4629 10.383 17.1205 5.36693 13.8592 2.38935C10.5978 -0.588237 5.57136 -0.474001 2.44869 2.64867C-0.673983 5.77134 -0.788218 10.7978 2.18937 14.0591C5.16695 17.3204 10.1831 17.6629 13.5763 14.8366L18.2694 19.5306C18.5625 19.8237 19.0376 19.8237 19.3306 19.5306C19.6237 19.2376 19.6237 18.7624 19.3306 18.4694ZM1.55002 8.5C1.55002 4.77208 4.5721 1.75 8.30002 1.75C12.0279 1.75 15.05 4.77208 15.05 8.5C15.05 12.2279 12.0279 15.25 8.30002 15.25C4.57381 15.2459 1.55415 12.2262 1.55002 8.5Z" fill="#CE4B4B"/>
</svg>
