<svg width="19" height="19" viewBox="0 0 19 19" fill="none" xmlns="http://www.w3.org/2000/svg">
<path fill-rule="evenodd" clip-rule="evenodd" d="M18.1153 7.72844L10.6153 0.652188C10.6117 0.648989 10.6082 0.645543 10.605 0.641875C10.0328 0.121501 9.15876 0.121501 8.58657 0.641875L8.57626 0.652188L1.08469 7.72844C0.775736 8.01254 0.599942 8.41309 0.600006 8.83281V17.5C0.600006 18.3284 1.27158 19 2.10001 19H6.60001C7.42843 19 8.10001 18.3284 8.10001 17.5V13H11.1V17.5C11.1 18.3284 11.7716 19 12.6 19H17.1C17.9284 19 18.6 18.3284 18.6 17.5V8.83281C18.6001 8.41309 18.4243 8.01254 18.1153 7.72844ZM17.1 17.5H12.6V13C12.6 12.1716 11.9284 11.5 11.1 11.5H8.10001C7.27158 11.5 6.60001 12.1716 6.60001 13V17.5H2.10001V8.83281L2.11032 8.82344L9.60001 1.75L17.0906 8.82156L17.1009 8.83094L17.1 17.5Z" fill="#CE4B4B"/>
</svg>
