<svg width="18" height="21" viewBox="0 0 18 21" fill="none" xmlns="http://www.w3.org/2000/svg">
<path fill-rule="evenodd" clip-rule="evenodd" d="M13.2928 3.32625C12.1269 2.09765 10.815 1.01648 9.38625 0.106875C9.14855 -0.0359349 8.85145 -0.0359349 8.61375 0.106875C7.18501 1.01648 5.87305 2.09765 4.70719 3.32625C2.11781 6.045 0.75 9.04406 0.75 12C0.75 16.5563 4.44365 20.25 9 20.25C13.5563 20.25 17.25 16.5563 17.25 12C17.25 9.04406 15.8822 6.045 13.2928 3.32625ZM6 15.75C6 13.1559 8.11219 11.3175 9 10.6594C9.88875 11.3156 12 13.1559 12 15.75C12 17.4069 10.6569 18.75 9 18.75C7.34315 18.75 6 17.4069 6 15.75ZM13.2441 17.2434C13.4135 16.7638 13.5001 16.2587 13.5 15.75C13.5 11.625 9.55406 9.20719 9.38625 9.10688C9.14855 8.96407 8.85145 8.96407 8.61375 9.10688C8.44594 9.20719 4.5 11.625 4.5 15.75C4.49992 16.2587 4.58647 16.7638 4.75594 17.2434C3.17117 15.9641 2.25001 14.0367 2.25 12C2.25 8.77406 4.1625 6.07969 5.7675 4.38844C6.7461 3.36326 7.82953 2.44354 9 1.64438C10.1707 2.4433 11.2541 3.36303 12.2325 4.38844C15.1397 7.45312 15.75 10.2188 15.75 12C15.75 14.0367 14.8288 15.9641 13.2441 17.2434Z" fill="#1C0D0D"/>
</svg>
